<?xml version="1.0" encoding="UTF-8"?>
<svg version="1.1" xmlns="http://www.w3.org/2000/svg" width="445" height="560">
<path d="M0 0 C146.85 0 293.7 0 445 0 C445 184.8 445 369.6 445 560 C298.15 560 151.3 560 0 560 C0 375.2 0 190.4 0 0 Z " fill="#FEFEFE" transform="translate(0,0)"/>
<path d="M0 0 C3.68684241 0.25722156 5.78603703 0.85580757 8.875 2.9375 C11.83065967 7.19712717 11.78009755 10.94989478 11 16 C9.77336796 19.15339654 9.19917511 19.8732522 6.25 21.75 C2.73717728 23.10108566 0.71752025 23.54213837 -3 23 C-8.46200873 20.11441048 -8.46200873 20.11441048 -9.875 17.1875 C-9.91625 16.465625 -9.9575 15.74375 -10 15 C-10.103125 13.88625 -10.20625 12.7725 -10.3125 11.625 C-9.94486702 7.36045739 -8.60153143 5.33321215 -6 2 C-5.67 2.66 -5.34 3.32 -5 4 C-2.36 3.34 0.28 2.68 3 2 C2.01 1.34 1.02 0.68 0 0 Z " fill="#FDFDFD" transform="translate(299,497)"/>
<path d="M0 0 C2.31 0 4.62 0 7 0 C6.34 0.66 5.68 1.32 5 2 C4.97792512 4.67813399 4.97792512 4.67813399 5.375 7.625 C5.48585937 8.62789063 5.59671875 9.63078125 5.7109375 10.6640625 C5.80632812 11.43492187 5.90171875 12.20578125 6 13 C7.81242052 13.02687279 9.62495233 13.04633715 11.4375 13.0625 C12.95150391 13.07990234 12.95150391 13.07990234 14.49609375 13.09765625 C16.94021067 13.28612676 16.94021067 13.28612676 18 12 C18.16666667 9.5 18.16666667 9.5 18 7 C16.41727399 5.41727399 14.61965997 5.65264253 12.4375 5.4375 C11.61121094 5.35371094 10.78492188 5.26992188 9.93359375 5.18359375 C9.29550781 5.12300781 8.65742188 5.06242187 8 5 C8 4.67 8 4.34 8 4 C12.455 3.505 12.455 3.505 17 3 C17 2.34 17 1.68 17 1 C19.375 1.25 19.375 1.25 22 2 C23.3125 4.0625 23.3125 4.0625 24 6 C23.34 6 22.68 6 22 6 C22 6.66 22 7.32 22 8 C21.34 8 20.68 8 20 8 C19.67 10.64 19.34 13.28 19 16 C20.65 16.66 22.3 17.32 24 18 C23.97679687 18.68707031 23.95359375 19.37414062 23.9296875 20.08203125 C23.91164062 20.98308594 23.89359375 21.88414062 23.875 22.8125 C23.85179687 23.70582031 23.82859375 24.59914063 23.8046875 25.51953125 C23.81714173 28.25402714 23.81714173 28.25402714 26 31 C25 32 25 32 22.4375 32.0625 C21.633125 32.041875 20.82875 32.02125 20 32 C18.57499941 28.00999834 17.59924224 24.19469571 17 20 C13.04 19.67 9.08 19.34 5 19 C5 23.29 5 27.58 5 32 C3.35 31.67 1.7 31.34 0 31 C0 20.77 0 10.54 0 0 Z " fill="#F4F3F3" transform="translate(208,449)"/>
<path d="M0 0 C0.33 0 0.66 0 1 0 C1 9.9 1 19.8 1 30 C7.93 30 14.86 30 22 30 C22 29.01 22 28.02 22 27 C16.06 27 10.12 27 4 27 C4 23.37 4 19.74 4 16 C9.61 16 15.22 16 21 16 C21.33 15.34 21.66 14.68 22 14 C22 14.99 22 15.98 22 17 C16.39 17 10.78 17 5 17 C5 19.97 5 22.94 5 26 C6.26457031 25.98839844 7.52914062 25.97679687 8.83203125 25.96484375 C10.49218602 25.95546434 12.15234239 25.9463643 13.8125 25.9375 C14.64587891 25.92912109 15.47925781 25.92074219 16.33789062 25.91210938 C17.14033203 25.90888672 17.94277344 25.90566406 18.76953125 25.90234375 C19.87711792 25.89448853 19.87711792 25.89448853 21.00708008 25.88647461 C23 26 23 26 26 27 C26.33 25.02 26.66 23.04 27 21 C27.639375 21.185625 28.27875 21.37125 28.9375 21.5625 C29.9584375 21.7790625 29.9584375 21.7790625 31 22 C31.33 21.67 31.66 21.34 32 21 C34.01964199 20.92755947 36.04167124 20.91622812 38.0625 20.9375 C39.71958984 20.95103516 39.71958984 20.95103516 41.41015625 20.96484375 C42.26480469 20.97644531 43.11945313 20.98804688 44 21 C44 20.34 44 19.68 44 19 C40.7 19 37.4 19 34 19 C34 17.35 34 15.7 34 14 C34.495 15.98 34.495 15.98 35 18 C37.31 18 39.62 18 42 18 C41.690625 17.2575 41.38125 16.515 41.0625 15.75 C40.1905075 13.49307824 39.52332993 11.3549847 39 9 C38.01 9.99 37.02 10.98 36 12 C36.33 9.69 36.66 7.38 37 5 C39.31 5.33 41.62 5.66 44 6 C47.48395745 14.21688079 50.78350557 22.0860322 52 31 C50.35 31 48.7 31 47 31 C45.5268006 28.25002779 44.77595125 26.10380501 44 23 C40.37 23 36.74 23 33 23 C32.4121875 24.7015625 32.4121875 24.7015625 31.8125 26.4375 C30 30 30 30 27.3125 30.9375 C26.549375 30.958125 25.78625 30.97875 25 31 C24.67 30.34 24.34 29.68 24 29 C23.67 29.66 23.34 30.32 23 31 C15.41 31 7.82 31 0 31 C0 20.77 0 10.54 0 0 Z " fill="#E7E7E7" transform="translate(238,450)"/>
<path d="M0 0 C1.65 0 3.3 0 5 0 C5.33 0.66 5.66 1.32 6 2 C5.32497832 3.92381179 4.63765832 5.84436629 3.8828125 7.73828125 C3.0427844 9.89038864 2.32280248 12.04831287 1.625 14.25 C0.35772162 18.0254335 -0.96307831 21.77605655 -2.375 25.5 C-2.94347656 27.03140625 -2.94347656 27.03140625 -3.5234375 28.59375 C-5 31 -5 31 -7.6640625 31.84375 C-8.43492187 31.8953125 -9.20578125 31.946875 -10 32 C-15.37129841 19.51480638 -15.37129841 19.51480638 -17 13 C-16.01 12.34 -15.02 11.68 -14 11 C-13.67 10.34 -13.34 9.68 -13 9 C-12.35004703 10.41478135 -11.70521278 11.83191487 -11.0625 13.25 C-10.52302734 14.43335938 -10.52302734 14.43335938 -9.97265625 15.640625 C-9.09966721 17.75823698 -8.48661492 19.76669362 -8 22 C-7.04027826 19.45884998 -6.08218506 16.91710543 -5.125 14.375 C-4.85558594 13.66214844 -4.58617187 12.94929688 -4.30859375 12.21484375 C-2.7865816 8.16851878 -1.33627828 4.11262344 0 0 Z " fill="#F2F2F2" transform="translate(346,449)"/>
<path d="M0 0 C1.890625 0.02734375 1.890625 0.02734375 4 1 C5.921875 3.50390625 5.921875 3.50390625 7.75 6.5625 C8.67039062 8.08037109 8.67039062 8.08037109 9.609375 9.62890625 C10.06828125 10.41136719 10.5271875 11.19382812 11 12 C11.33 8.04 11.66 4.08 12 0 C12.99 0 13.98 0 15 0 C14.34 3.3 13.68 6.6 13 10 C13.66 10 14.32 10 15 10 C15 13.96 15 17.92 15 22 C10.29774821 20.82443705 9.88978305 19.95917307 7.3125 16.0625 C6.71050781 15.16660156 6.10851562 14.27070313 5.48828125 13.34765625 C4 11 4 11 3 9 C3.02320313 9.77085937 3.04640625 10.54171875 3.0703125 11.3359375 C3.09738281 12.84027344 3.09738281 12.84027344 3.125 14.375 C3.14820313 15.37273438 3.17140625 16.37046875 3.1953125 17.3984375 C3 20 3 20 1 22 C-2.12832081 17.73260723 -2.37910125 14.54325991 -2.3125 9.3125 C-2.31572266 8.63638672 -2.31894531 7.96027344 -2.32226562 7.26367188 C-2.26758205 2.26758205 -2.26758205 2.26758205 0 0 Z M2 2 C2 2.66 2 3.32 2 4 C1.34 4 0.68 4 0 4 C0 6.64 0 9.28 0 12 C0.66 11.67 1.32 11.34 2 11 C1.67 9.35 1.34 7.7 1 6 C1.99 5.67 2.98 5.34 4 5 C3.67 4.01 3.34 3.02 3 2 C2.67 2 2.34 2 2 2 Z " fill="#F3F2F2" transform="translate(320,497)"/>
<path d="M0 0 C1.65 0.33 3.3 0.66 5 1 C5 10.9 5 20.8 5 31 C3.35 31.33 1.7 31.66 0 32 C-1.88319268 30.11680732 -1.13054285 26.88069863 -1.1328125 24.375 C-1.13376923 23.71290527 -1.13472595 23.05081055 -1.13571167 22.36865234 C-1.13639326 20.96647039 -1.13454042 19.5642853 -1.13037109 18.16210938 C-1.12502246 16.00904287 -1.1303167 13.85618498 -1.13671875 11.703125 C-1.13605796 10.34374954 -1.13477679 8.9843742 -1.1328125 7.625 C-1.13168457 6.37976563 -1.13055664 5.13453125 -1.12939453 3.8515625 C-1 1 -1 1 0 0 Z " fill="#F6F6F6" transform="translate(98,449)"/>
<path d="M0 0 C1.2065625 0.0309375 1.2065625 0.0309375 2.4375 0.0625 C2.1075 0.7225 1.7775 1.3825 1.4375 2.0625 C2.530625 2.0625 3.62375 2.0625 4.75 2.0625 C11.4375 2.0625 11.4375 2.0625 13.11328125 3.26953125 C14.81929304 5.57944102 14.74841704 6.91140819 14.625 9.75 C14.59792969 10.55824219 14.57085937 11.36648438 14.54296875 12.19921875 C14.49076172 13.12154297 14.49076172 13.12154297 14.4375 14.0625 C14.1075 14.0625 13.7775 14.0625 13.4375 14.0625 C13.4375 11.7525 13.4375 9.4425 13.4375 7.0625 C12.7775 7.0625 12.1175 7.0625 11.4375 7.0625 C11.4375 9.7025 11.4375 12.3425 11.4375 15.0625 C11.1075 15.0625 10.7775 15.0625 10.4375 15.0625 C10.20963542 13.07682292 9.98177083 11.09114583 9.75390625 9.10546875 C9.46579265 6.86853607 9.46579265 6.86853607 8.4375 4.0625 C6.1275 4.3925 3.8175 4.7225 1.4375 5.0625 C1.4375 9.3525 1.4375 13.6425 1.4375 18.0625 C4.9025 17.5675 4.9025 17.5675 8.4375 17.0625 C8.4375 17.7225 8.4375 18.3825 8.4375 19.0625 C9.4275 19.3925 10.4175 19.7225 11.4375 20.0625 C8.55334117 21.50457941 6.02028472 21.15644887 2.8125 21.125 C1.62398437 21.11597656 0.43546875 21.10695313 -0.7890625 21.09765625 C-1.70429688 21.08605469 -2.61953125 21.07445312 -3.5625 21.0625 C-3.59138146 17.75001813 -3.60925799 14.43756833 -3.625 11.125 C-3.63337891 10.17947266 -3.64175781 9.23394531 -3.65039062 8.25976562 C-3.65361328 7.36064453 -3.65683594 6.46152344 -3.66015625 5.53515625 C-3.66539307 4.70250244 -3.67062988 3.86984863 -3.67602539 3.01196289 C-3.50016074 -0.00799247 -3.04049625 0.07415845 0 0 Z " fill="#FBFAFB" transform="translate(174.5625,496.9375)"/>
<path d="M0 0 C2 1 2 1 3.0625 3.9375 C4.64532789 7.11524674 4.64532789 7.11524674 7.1953125 7.83984375 C9.46132722 8.32643312 11.69976941 8.72030739 14 9 C14.33 8.34 14.66 7.68 15 7 C16.75 3.875 16.75 3.875 19 1 C21.75 0.625 21.75 0.625 24 1 C23.46968862 5.5076467 21.74778884 8.41954788 19 12 C18.34 12 17.68 12 17 12 C17 12.66 17 13.32 17 14 C15.35 14 13.7 14 12 14 C12 13.01 12 12.02 12 11 C11.34 11 10.68 11 10 11 C9.67 11.66 9.34 12.32 9 13 C9.66 13.33 10.32 13.66 11 14 C6.66949629 14.42455919 4.68969225 14.53642731 1.1875 11.8125 C-0.83510721 9.21200502 -2.01869159 7.12234496 -3 4 C-2.01 3.67 -1.02 3.34 0 3 C0 2.01 0 1.02 0 0 Z " fill="#F1F0F1" transform="translate(46,468)"/>
<path d="M0 0 C2 3 2 3 3.125 6.125 C4.63908697 9.08909359 4.63908697 9.08909359 6.8671875 9.64453125 C10.36748112 10.12534081 12.60317575 10.13227475 16 9 C17.70855022 5.99992729 17.70855022 5.99992729 19 3 C20.32 3.33 21.64 3.66 23 4 C23.39397781 7.44730584 23.1644697 8.75613114 21.1875 11.6875 C18.64584494 14.37439249 16.97269414 15.8683676 13.2578125 16.37109375 C4.7597983 16.55122622 4.7597983 16.55122622 0.8125 13.6875 C-1 11 -1 11 -2 8 C-1.34 8 -0.68 8 0 8 C0 5.36 0 2.72 0 0 Z " fill="#EFEFEF" transform="translate(180,466)"/>
<path d="M0 0 C0.87269531 -0.01417969 1.74539062 -0.02835937 2.64453125 -0.04296875 C5.36297612 0.20340337 6.94909235 0.6312256 9.1875 2.1875 C10.0625 5.625 10.0625 5.625 10.1875 9.1875 C9.1975 10.6725 9.1975 10.6725 8.1875 12.1875 C7.5275 11.8575 6.8675 11.5275 6.1875 11.1875 C7.1775 9.5375 8.1675 7.8875 9.1875 6.1875 C8.5275 6.1875 7.8675 6.1875 7.1875 6.1875 C6.8575 6.8475 6.5275 7.5075 6.1875 8.1875 C5.8575 7.1975 5.5275 6.2075 5.1875 5.1875 C2.8775 4.8575 0.5675 4.5275 -1.8125 4.1875 C-1.62421228 6.63230079 -1.62421228 6.63230079 -0.8125 9.1875 C1.13771083 10.41277948 1.13771083 10.41277948 3.1875 11.1875 C3.5175 11.8475 3.8475 12.5075 4.1875 13.1875 C2.2075 13.1875 0.2275 13.1875 -1.8125 13.1875 C-1.8125 15.8275 -1.8125 18.4675 -1.8125 21.1875 C-3.1325 21.1875 -4.4525 21.1875 -5.8125 21.1875 C-5.84138146 17.87501813 -5.85925799 14.56256833 -5.875 11.25 C-5.88337891 10.30447266 -5.89175781 9.35894531 -5.90039062 8.38476562 C-5.90361328 7.48564453 -5.90683594 6.58652344 -5.91015625 5.66015625 C-5.91539307 4.82750244 -5.92062988 3.99484863 -5.92602539 3.13696289 C-5.70121986 -0.72340729 -3.31475792 0.02426616 0 0 Z " fill="#F1F1F1" transform="translate(96.8125,496.8125)"/>
<path d="M0 0 C2.97 0 5.94 0 9 0 C9 0.33 9 0.66 9 1 C6.36 1 3.72 1 1 1 C1 1.99 1 2.98 1 4 C1.59167969 3.98839844 2.18335938 3.97679687 2.79296875 3.96484375 C3.97826172 3.95130859 3.97826172 3.95130859 5.1875 3.9375 C5.96480469 3.92589844 6.74210937 3.91429687 7.54296875 3.90234375 C10 4 10 4 15 5 C15 13.91 15 22.82 15 32 C13.35 31.67 11.7 31.34 10 31 C9.67 22.75 9.34 14.5 9 6 C6.03 5.67 3.06 5.34 0 5 C0 3.35 0 1.7 0 0 Z " fill="#EAEAEA" transform="translate(288,449)"/>
<path d="M0 0 C4.13347071 0.47239665 7.35761877 2.05174957 11 4 C8 5 8 5 1 2 C1 21.14 1 40.28 1 60 C1.99 60.33 2.98 60.66 4 61 C2.515 61.495 2.515 61.495 1 62 C-0.98791513 58.67828656 -1.2483944 56.17372653 -1.24291992 52.3293457 C-1.24599655 51.19169266 -1.24907318 50.05403961 -1.25224304 48.88191223 C-1.24505753 47.65888901 -1.23787201 46.43586578 -1.23046875 45.17578125 C-1.23001053 43.91863815 -1.22955231 42.66149506 -1.2290802 41.36625671 C-1.2260598 38.71074854 -1.2192539 36.05558857 -1.20581055 33.40014648 C-1.18876914 29.99023222 -1.18499787 26.58046598 -1.18575573 23.17051411 C-1.18541925 19.92225509 -1.17658845 16.67402734 -1.16796875 13.42578125 C-1.16685593 12.19668533 -1.1657431 10.96758942 -1.16459656 9.70124817 C-1.15821671 8.57305161 -1.15183685 7.44485504 -1.14526367 6.2824707 C-1.14145187 5.28415726 -1.13764008 4.28584381 -1.13371277 3.25727844 C-1 1 -1 1 0 0 Z " fill="#F1F1F1" transform="translate(155,331)"/>
<path d="M0 0 C0.33 0 0.66 0 1 0 C1 6.27 1 12.54 1 19 C1.66 19 2.32 19 3 19 C3 13.39 3 7.78 3 2 C12.625 1 12.625 1 16 1 C17 2 17 2 17.0625 5.0625 C17.041875 6.031875 17.02125 7.00125 17 8 C16.67 8 16.34 8 16 8 C16 6.35 16 4.7 16 3 C15.34 3 14.68 3 14 3 C14 4.65 14 6.3 14 8 C12.02 8.99 12.02 8.99 10 10 C10.99 10.66 11.98 11.32 13 12 C10.03 12 7.06 12 4 12 C4 14.64 4 17.28 4 20 C2.68 20 1.36 20 0 20 C0 13.4 0 6.8 0 0 Z " fill="#E1E1E1" transform="translate(116,498)"/>
<path d="M0 0 C1.89453125 0.91015625 1.89453125 0.91015625 4.89453125 3.34765625 C5.83203125 7.09765625 5.83203125 7.09765625 5.89453125 10.34765625 C4.90453125 10.34765625 3.91453125 10.34765625 2.89453125 10.34765625 C3.55453125 10.01765625 4.21453125 9.68765625 4.89453125 9.34765625 C4.89453125 8.35765625 4.89453125 7.36765625 4.89453125 6.34765625 C4.23453125 6.34765625 3.57453125 6.34765625 2.89453125 6.34765625 C2.56453125 7.33765625 2.23453125 8.32765625 1.89453125 9.34765625 C0.90453125 8.68765625 -0.08546875 8.02765625 -1.10546875 7.34765625 C-1.10546875 6.68765625 -1.10546875 6.02765625 -1.10546875 5.34765625 C-7.36626323 4.91587732 -10.19622578 5.42026187 -15.10546875 9.34765625 C-15.10546875 6.68098958 -15.10546875 4.01432292 -15.10546875 1.34765625 C-10.23216895 -1.40251294 -5.35042115 -1.65773716 0 0 Z " fill="#EEEEED" transform="translate(63.10546875,449.65234375)"/>
<path d="M0 0 C3.68684241 0.25722156 5.78603703 0.85580757 8.875 2.9375 C11.83065967 7.19712717 11.78009755 10.94989478 11 16 C9.79958709 19.10151933 9.45666209 19.78254186 6.375 21.25 C5.59125 21.4975 4.8075 21.745 4 22 C4 21.34 4 20.68 4 20 C3.01 19.67 2.02 19.34 1 19 C1.99 18.67 2.98 18.34 4 18 C6.45811625 14.31282562 6.31118164 12.35654296 6 8 C4.29107501 4.68539295 4.29107501 4.68539295 0.875 4.3125 C-0.07375 4.209375 -1.0225 4.10625 -2 4 C-2 3.67 -2 3.34 -2 3 C-0.35 2.67 1.3 2.34 3 2 C2.01 1.34 1.02 0.68 0 0 Z " fill="#EAEAEA" transform="translate(299,497)"/>
<path d="M0 0 C1.40415083 0.41002121 2.80343572 0.83908368 4.1875 1.3125 C4.1875 0.6525 4.1875 -0.0075 4.1875 -0.6875 C7.58664975 0.44554992 8.24004451 1.43768475 10.1875 4.3125 C8.2075 5.3025 8.2075 5.3025 6.1875 6.3125 C5.836875 5.838125 5.48625 5.36375 5.125 4.875 C2.34586457 2.63376175 -0.3269717 2.64132342 -3.8125 2.3125 C-4.77320434 5.19461302 -4.91831883 7.01100044 -4.875 10 C-4.86597656 10.80824219 -4.85695312 11.61648438 -4.84765625 12.44921875 C-4.83605469 13.06410156 -4.82445312 13.67898438 -4.8125 14.3125 C-5.4725 14.3125 -6.1325 14.3125 -6.8125 14.3125 C-7.1425 15.3025 -7.4725 16.2925 -7.8125 17.3125 C-10.25276562 12.99058379 -10.62517916 9.18857495 -9.8125 4.3125 C-7.00642676 -0.30394307 -5.08837451 -1.10756417 0 0 Z " fill="#ECECEC" transform="translate(233.8125,498.6875)"/>
<path d="M0 0 C2.97 0 5.94 0 9 0 C9 0.66 9 1.32 9 2 C9.78375 2.0825 10.5675 2.165 11.375 2.25 C14 3 14 3 15.3125 4.8125 C16 7 16 7 16 11 C15.01 11.33 14.02 11.66 13 12 C10 9 10 9 8.8125 7.3125 C5.78519613 5.12031444 2.65390862 5.82029958 -1 6 C0.63412443 4.29159719 1.86906094 3.06546953 4 2 C2.68 1.34 1.36 0.68 0 0 Z " fill="#F0EFEF" transform="translate(187,449)"/>
<path d="M0 0 C0.66666667 2 1.33333333 4 2 6 C-2.45089796 8.9672653 -6.78102898 8.76574646 -12 8 C-14.580764 6.59186451 -15.97429513 5.18995122 -18 3 C-17.67 2.34 -17.34 1.68 -17 1 C-14.525 2.98 -14.525 2.98 -12 5 C-12 4.01 -12 3.02 -12 2 C-11.07767578 2.03480469 -11.07767578 2.03480469 -10.13671875 2.0703125 C-8.92435547 2.09738281 -8.92435547 2.09738281 -7.6875 2.125 C-6.48673828 2.15980469 -6.48673828 2.15980469 -5.26171875 2.1953125 C-2.71611424 2.15817322 -2.71611424 2.15817322 0 0 Z " fill="#F0EFF0" transform="translate(127,474)"/>
<path d="M0 0 C0.75 1.6875 0.75 1.6875 1 4 C-0.78517826 6.64698845 -2.12021246 8.56010623 -5 10 C-9.93623109 10.37254574 -13.10663263 10.20630254 -17 7 C-17.8125 4.8125 -17.8125 4.8125 -18 3 C-17.01 3.495 -17.01 3.495 -16 4 C-15.34 3.34 -14.68 2.68 -14 2 C-13.608125 2.495 -13.21625 2.99 -12.8125 3.5 C-11.07090073 5.20243525 -11.07090073 5.20243525 -8.5625 5.375 C-5.58699552 4.93956032 -4.22230844 3.97538528 -2 2 C-1.34 2.33 -0.68 2.66 0 3 C0 2.01 0 1.02 0 0 Z " fill="#F0F0F0" transform="translate(161,510)"/>
<path d="M0 0 C0.99 0 1.98 0 3 0 C2.34 3.3 1.68 6.6 1 10 C1.66 10 2.32 10 3 10 C3 13.96 3 17.92 3 22 C-1 21 -1 21 -2.6875 18.8125 C-4.088232 15.81093143 -4.58211354 13.27344395 -5 10 C-5.31674575 8.66262906 -5.64270064 7.32711192 -6 6 C-3.9754262 7.93254772 -2.57894208 9.63158688 -1 12 C-0.67 8.04 -0.34 4.08 0 0 Z " fill="#EDECEB" transform="translate(332,497)"/>
<path d="M0 0 C0.66 0.33 1.32 0.66 2 1 C0.7792482 6.08646583 -0.71919558 9.79646933 -4 14 C-4.66 14 -5.32 14 -6 14 C-6 16.97 -6 19.94 -6 23 C-8.46999683 20.53000317 -8.2968552 19.71785184 -8.3125 16.3125 C-8.19937763 11.41288717 -7.46154146 8.244037 -5 4 C-2.3125 1.5625 -2.3125 1.5625 0 0 Z " fill="#F3F3F3" transform="translate(184,450)"/>
<path d="M0 0 C1.2065625 0.0309375 1.2065625 0.0309375 2.4375 0.0625 C-0.5625 2.0625 -0.5625 2.0625 -2.5625 2.0625 C-2.2325 7.3425 -1.9025 12.6225 -1.5625 18.0625 C-0.9025 18.0625 -0.2425 18.0625 0.4375 18.0625 C0.4375 14.4325 0.4375 10.8025 0.4375 7.0625 C0.7675 7.0625 1.0975 7.0625 1.4375 7.0625 C1.4375 10.6925 1.4375 14.3225 1.4375 18.0625 C4.9025 17.5675 4.9025 17.5675 8.4375 17.0625 C8.4375 17.7225 8.4375 18.3825 8.4375 19.0625 C9.4275 19.3925 10.4175 19.7225 11.4375 20.0625 C8.55334117 21.50457941 6.02028472 21.15644887 2.8125 21.125 C1.62398437 21.11597656 0.43546875 21.10695313 -0.7890625 21.09765625 C-1.70429688 21.08605469 -2.61953125 21.07445312 -3.5625 21.0625 C-3.59138146 17.75001813 -3.60925799 14.43756833 -3.625 11.125 C-3.63337891 10.17947266 -3.64175781 9.23394531 -3.65039062 8.25976562 C-3.65361328 7.36064453 -3.65683594 6.46152344 -3.66015625 5.53515625 C-3.66539307 4.70250244 -3.67062988 3.86984863 -3.67602539 3.01196289 C-3.50016074 -0.00799247 -3.04049625 0.07415845 0 0 Z " fill="#EBEBEB" transform="translate(174.5625,496.9375)"/>
<path d="M0 0 C0.94875 0.04125 1.8975 0.0825 2.875 0.125 C1.43530948 5.16391682 -1.14400215 6.99102297 -5.125 10.125 C-5.455 10.785 -5.785 11.445 -6.125 12.125 C-6.785 11.795 -7.445 11.465 -8.125 11.125 C-8.455 11.125 -8.785 11.125 -9.125 11.125 C-10.115 10.795 -11.105 10.465 -12.125 10.125 C-11.0008824 8.83256532 -9.87567408 7.54107925 -8.75 6.25 C-8.12351563 5.53070313 -7.49703125 4.81140625 -6.8515625 4.0703125 C-3.35817788 0.13432712 -3.35817788 0.13432712 0 0 Z " fill="#F1F1F1" transform="translate(160.125,448.875)"/>
<path d="M0 0 C3.58707329 3.38779144 6.49689539 6.73545141 9 11 C9 11.99 9 12.98 9 14 C6.73828125 14.2734375 6.73828125 14.2734375 4 14 C1.98046875 12.1015625 1.98046875 12.1015625 0.1875 9.625 C-0.41707031 8.81289063 -1.02164063 8.00078125 -1.64453125 7.1640625 C-3 5 -3 5 -3 3 C-1 3 -1 3 0.625 4.5 C1.07875 4.995 1.5325 5.49 2 6 C1.34 4.02 0.68 2.04 0 0 Z " fill="#F1F0F0" transform="translate(154,467)"/>
<path d="M0 0 C1.18851563 0.28746094 2.37703125 0.57492187 3.6015625 0.87109375 C4.51679688 1.09925781 5.43203125 1.32742188 6.375 1.5625 C6.705 0.5725 7.035 -0.4175 7.375 -1.4375 C8.035 -0.7775 8.695 -0.1175 9.375 0.5625 C8.715 0.5625 8.055 0.5625 7.375 0.5625 C7.045 1.8825 6.715 3.2025 6.375 4.5625 C4.43940687 4.69754138 2.501128 4.79451129 0.5625 4.875 C-1.05591797 4.96201172 -1.05591797 4.96201172 -2.70703125 5.05078125 C-5.625 4.5625 -5.625 4.5625 -7.51171875 2.04296875 C-7.87910156 1.22441406 -8.24648437 0.40585937 -8.625 -0.4375 C-5.54978317 -1.97510842 -3.27824882 -0.80349236 0 0 Z " fill="#F5F5F5" transform="translate(189.625,477.4375)"/>
<path d="M0 0 C0.33 0 0.66 0 1 0 C1 5.28 1 10.56 1 16 C1.66 16 2.32 16 3 16 C3 11.38 3 6.76 3 2 C3.33 2 3.66 2 4 2 C4.00257813 2.96421875 4.00515625 3.9284375 4.0078125 4.921875 C3.86320135 11.75427801 3.86320135 11.75427801 6.40234375 17.78515625 C8.20987923 18.96843037 8.20987923 18.96843037 11 20 C11 20.33 11 20.66 11 21 C4.728739 21.48240469 4.728739 21.48240469 1.78125 19.53125 C-0.82316537 15.83023869 -0.4399867 12.65623008 -0.25 8.25 C-0.23195312 7.45722656 -0.21390625 6.66445313 -0.1953125 5.84765625 C-0.14833082 3.89791652 -0.07659044 1.94880122 0 0 Z " fill="#E7E7E7" transform="translate(199,498)"/>
<path d="M0 0 C4.62 0 9.24 0 14 0 C13.34 0.66 12.68 1.32 12 2 C12.99 2.66 13.98 3.32 15 4 C13.02 4 11.04 4 9 4 C9.185625 5.051875 9.37125 6.10375 9.5625 7.1875 C9.95079331 10.57119882 9.88247485 12.76425888 9 16 C8.67 16 8.34 16 8 16 C7.67 12.37 7.34 8.74 7 5 C6.01 5.495 6.01 5.495 5 6 C5 5.34 5 4.68 5 4 C3.35 4 1.7 4 0 4 C0 3.67 0 3.34 0 3 C1.98 3 3.96 3 6 3 C6 2.34 6 1.68 6 1 C4.02 1 2.04 1 0 1 C0 0.67 0 0.34 0 0 Z " fill="#F1F0F1" transform="translate(252,497)"/>
<path d="M0 0 C0.33 0.66 0.66 1.32 1 2 C1.99 2.33 2.98 2.66 4 3 C3.01 3.33 2.02 3.66 1 4 C1 7.3 1 10.6 1 14 C0.67 13.34 0.34 12.68 0 12 C-1.32 12.33 -2.64 12.66 -4 13 C-4.45732667 7.28341664 -3.52273754 4.51350747 0 0 Z " fill="#F3F3F3" transform="translate(293,499)"/>
<path d="M0 0 C2.375 0.25 2.375 0.25 5 1 C6.3125 3.0625 6.3125 3.0625 7 5 C6.34 5 5.68 5 5 5 C5 5.66 5 6.32 5 7 C4.34 7 3.68 7 3 7 C3 8.65 3 10.3 3 12 C2.01 12.495 2.01 12.495 1 13 C1.020625 11.865625 1.04125 10.73125 1.0625 9.5625 C1.41577477 6.18424326 1.41577477 6.18424326 0 5 C-1.51469448 4.76807135 -3.03754562 4.58784762 -4.5625 4.4375 C-5.38878906 4.35371094 -6.21507812 4.26992188 -7.06640625 4.18359375 C-7.70449219 4.12300781 -8.34257812 4.06242187 -9 4 C-9 3.67 -9 3.34 -9 3 C-4.545 2.505 -4.545 2.505 0 2 C0 1.34 0 0.68 0 0 Z " fill="#F0F0EF" transform="translate(225,450)"/>
<path d="M0 0 C0.99 0.33 1.98 0.66 3 1 C2.96519531 2.03060547 2.96519531 2.03060547 2.9296875 3.08203125 C2.91164062 3.98308594 2.89359375 4.88414062 2.875 5.8125 C2.84019531 7.15248047 2.84019531 7.15248047 2.8046875 8.51953125 C2.81714173 11.25402714 2.81714173 11.25402714 5 14 C4 15 4 15 1.5 15.125 C-1 15 -1 15 -2 14 C-2.04080783 12.00041636 -2.04254356 9.99954746 -2 8 C-1.34 8 -0.68 8 0 8 C1.01540112 3.89776415 1.01540112 3.89776415 0 0 Z " fill="#F0F0F0" transform="translate(229,466)"/>
<path d="M0 0 C2.46800047 1.15173355 4.04783565 2.04783565 6 4 C6.1953125 6.1640625 6.1953125 6.1640625 6.125 8.625 C6.10695312 9.44226563 6.08890625 10.25953125 6.0703125 11.1015625 C6.03550781 12.04128906 6.03550781 12.04128906 6 13 C5.67 13 5.34 13 5 13 C5 10.69 5 8.38 5 6 C4.34 6 3.68 6 3 6 C3 8.64 3 11.28 3 14 C2.67 14 2.34 14 2 14 C1.77213542 12.01432292 1.54427083 10.02864583 1.31640625 8.04296875 C1.02829265 5.80603607 1.02829265 5.80603607 0 3 C-2.64 3 -5.28 3 -8 3 C-8 2.67 -8 2.34 -8 2 C-5.36 1.67 -2.72 1.34 0 1 C0 0.67 0 0.34 0 0 Z " fill="#EAEAEA" transform="translate(183,498)"/>
<path d="M0 0 C2.97 0 5.94 0 9 0 C9 1.65 9 3.3 9 5 C6.03 5 3.06 5 0 5 C0 3.35 0 1.7 0 0 Z " fill="#FEFEFE" transform="translate(120,501)"/>
<path d="M0 0 C0.66 0 1.32 0 2 0 C2 2.97 2 5.94 2 9 C1.67 9 1.34 9 1 9 C0.67 11.31 0.34 13.62 0 16 C0.66 16 1.32 16 2 16 C2.33 14.68 2.66 13.36 3 12 C3 13.65 3 15.3 3 17 C1.68 17 0.36 17 -1 17 C-1 14.03 -1 11.06 -1 8 C-2.65 8 -4.3 8 -6 8 C-4 6 -4 6 -1 5 C-0.67 3.35 -0.34 1.7 0 0 Z " fill="#F0EFF0" transform="translate(130,501)"/>
<path d="M0 0 C0.33 0 0.66 0 1 0 C1.33 3.96 1.66 7.92 2 12 C1.34 12 0.68 12 0 12 C-0.33 12.66 -0.66 13.32 -1 14 C-1.99 14.495 -1.99 14.495 -3 15 C-4.32229189 12.35541621 -4.09677194 10.32238699 -4.0625 7.375 C-4.05347656 6.37210937 -4.04445313 5.36921875 -4.03515625 4.3359375 C-4.02355469 3.56507813 -4.01195313 2.79421875 -4 2 C-3.67 2 -3.34 2 -3 2 C-2.67 3.98 -2.34 5.96 -2 8 C-1.34 5.36 -0.68 2.72 0 0 Z " fill="#E9E9E9" transform="translate(111,460)"/>
<path d="M0 0 C2.475 0.99 2.475 0.99 5 2 C6.25 8.625 6.25 8.625 4 12 C3.34 11.67 2.68 11.34 2 11 C2.99 9.35 3.98 7.7 5 6 C4.34 6 3.68 6 3 6 C2.67 6.66 2.34 7.32 2 8 C1.67 7.01 1.34 6.02 1 5 C-1.31 4.67 -3.62 4.34 -6 4 C-6 3.67 -6 3.34 -6 3 C-4.02 3 -2.04 3 0 3 C0 2.01 0 1.02 0 0 Z " fill="#EBEBEB" transform="translate(101,497)"/>
<path d="M0 0 C0.66 1.32 1.32 2.64 2 4 C0.61068357 5.44379943 -0.78676578 6.87977512 -2.1875 8.3125 C-3.35345703 9.51326172 -3.35345703 9.51326172 -4.54296875 10.73828125 C-6.90305695 12.91076308 -9.19647888 14.46130013 -12 16 C-12 15.01 -12 14.02 -12 13 C-12.66 12.67 -13.32 12.34 -14 12 C-12.9275 11.773125 -11.855 11.54625 -10.75 11.3125 C-6.58706094 9.85547133 -5.49088535 8.50569049 -3 5 C-2.34 5 -1.68 5 -1 5 C-0.67 3.35 -0.34 1.7 0 0 Z M-14 16 C-12 17 -12 17 -12 17 Z " fill="#EFEFEF" transform="translate(346,342)"/>
<path d="M0 0 C1.32 0.66 2.64 1.32 4 2 C4 3.98 4 5.96 4 8 C2.35 8.33 0.7 8.66 -1 9 C-0.67 6.03 -0.34 3.06 0 0 Z " fill="#F3F1F2" transform="translate(265,471)"/>
<path d="M0 0 C1.03348696 3.10046087 1.17755913 4.05610218 0 7 C-0.99 7.33 -1.98 7.66 -3 8 C-3.66 8.99 -4.32 9.98 -5 11 C-5 7.7 -5 4.4 -5 1 C-3.35 0.67 -1.7 0.34 0 0 Z " fill="#F1F1F1" transform="translate(47,460)"/>
<path d="M0 0 C0.99 0.33 1.98 0.66 3 1 C3 3.64 3 6.28 3 9 C3.66 9.33 4.32 9.66 5 10 C4.34 10 3.68 10 3 10 C2.67 10.99 2.34 11.98 2 13 C0.21590198 9.93753253 -0.22880021 7.77920727 -0.125 4.25 C-0.10695312 3.45078125 -0.08890625 2.6515625 -0.0703125 1.828125 C-0.04710937 1.22484375 -0.02390625 0.6215625 0 0 Z " fill="#EEEEEE" transform="translate(224,503)"/>
<path d="M0 0 C1.485 0.99 1.485 0.99 3 2 C3.66 2 4.32 2 5 2 C4.34 3.32 3.68 4.64 3 6 C2.34 6 1.68 6 1 6 C1 8.97 1 11.94 1 15 C-1 13 -1 13 -1.23046875 10.72265625 C-1.21628906 9.84480469 -1.20210937 8.96695312 -1.1875 8.0625 C-1.18105469 7.18722656 -1.17460937 6.31195313 -1.16796875 5.41015625 C-1 3 -1 3 0 0 Z " fill="#EEEDEC" transform="translate(177,458)"/>
<path d="M0 0 C1.65 0 3.3 0 5 0 C6 2 6 2 5.44140625 3.9453125 C5.15136719 4.66460937 4.86132812 5.38390625 4.5625 6.125 C4.27503906 6.84945313 3.98757813 7.57390625 3.69140625 8.3203125 C3.46324219 8.87460937 3.23507812 9.42890625 3 10 C2 7 2 7 3 4 C1.02 4.99 1.02 4.99 -1 6 C-0.67 4.02 -0.34 2.04 0 0 Z " fill="#F2F0F1" transform="translate(346,449)"/>
<path d="M0 0 C1.2065625 0.0309375 1.2065625 0.0309375 2.4375 0.0625 C1.6875 4.8125 1.6875 4.8125 -0.5625 7.0625 C-0.8925 6.4025 -1.2225 5.7425 -1.5625 5.0625 C-3.5425 6.0525 -3.5425 6.0525 -5.5625 7.0625 C-3.33446653 0.08132845 -3.33446653 0.08132845 0 0 Z " fill="#E8E8E8" transform="translate(67.5625,468.9375)"/>
<path d="M0 0 C0.556875 0.474375 1.11375 0.94875 1.6875 1.4375 C4.18346074 3.12395996 6.0446237 3.58953107 9 4 C9 4.33 9 4.66 9 5 C3.71502591 6.76165803 3.71502591 6.76165803 1 7 C-1.5 5.125 -1.5 5.125 -3 3 C-2.67 2.34 -2.34 1.68 -2 1 C-1.67 1.33 -1.34 1.66 -1 2 C-0.67 1.34 -0.34 0.68 0 0 Z " fill="#EAEAEA" transform="translate(146,512)"/>
<path d="M0 0 C0.66 1.65 1.32 3.3 2 5 C0.68 5 -0.64 5 -2 5 C-1.67 6.32 -1.34 7.64 -1 9 C-2.65 8.01 -4.3 7.02 -6 6 C-3.84615385 0 -3.84615385 0 0 0 Z " fill="#EEEDED" transform="translate(152,461)"/>
<path d="M0 0 C3.465 1.485 3.465 1.485 7 3 C7 3.99 7 4.98 7 6 C8.65 6.33 10.3 6.66 12 7 C12 7.33 12 7.66 12 8 C8.08833093 8.37253991 6.16363775 8.0848492 2.625 6.25 C1.75875 5.5075 0.8925 4.765 0 4 C0 2.68 0 1.36 0 0 Z " fill="#EAEAEA" transform="translate(290,512)"/>
<path d="M0 0 C0.33 0 0.66 0 1 0 C1 3.63 1 7.26 1 11 C0.01 11 -0.98 11 -2 11 C-2.05399736 9.54207116 -2.09279177 8.08357288 -2.125 6.625 C-2.15980469 5.40683594 -2.15980469 5.40683594 -2.1953125 4.1640625 C-2 2 -2 2 0 0 Z " fill="#FCFCFA" transform="translate(211,469)"/>
<path d="M0 0 C2.64 0.33 5.28 0.66 8 1 C8.33 1.99 8.66 2.98 9 4 C8 5 8 5 4.4375 5.0625 C3.303125 5.041875 2.16875 5.02125 1 5 C0.67 3.35 0.34 1.7 0 0 Z " fill="#E2E2E2" transform="translate(229,514)"/>
<path d="M0 0 C0 0.99 0 1.98 0 3 C-1.97746603 3.73080266 -3.98072489 4.39421747 -6 5 C-6.66 4.67 -7.32 4.34 -8 4 C-7 1 -7 1 -5.125 -0.25 C-3 -1 -3 -1 0 0 Z " fill="#F6F6F4" transform="translate(55,450)"/>
<path d="M0 0 C1.65 0 3.3 0 5 0 C5.33 1.65 5.66 3.3 6 5 C4.68 5.33 3.36 5.66 2 6 C1.34 4.02 0.68 2.04 0 0 Z " fill="#F5F5F5" transform="translate(320,153)"/>
<path d="M0 0 C1.70884005 1.62339805 3.37446717 3.29319053 5 5 C5 5.66 5 6.32 5 7 C3.35 7.66 1.7 8.32 0 9 C-3 5.25 -3 5.25 -3 3 C-1 3 -1 3 0.625 4.5 C1.07875 4.995 1.5325 5.49 2 6 C1.34 4.02 0.68 2.04 0 0 Z " fill="#E9E9E9" transform="translate(154,467)"/>
<path d="M0 0 C2.8125 0.1875 2.8125 0.1875 6 1 C7.875 3.5625 7.875 3.5625 9 6 C5.37 5.34 1.74 4.68 -2 4 C-2 3.67 -2 3.34 -2 3 C-0.35 2.67 1.3 2.34 3 2 C2.01 1.34 1.02 0.68 0 0 Z " fill="#F1F1F1" transform="translate(299,497)"/>
<path d="M0 0 C0.99 0.66 1.98 1.32 3 2 C2.67 2.99 2.34 3.98 2 5 C1.01 4.67 0.02 4.34 -1 4 C-0.67 5.98 -0.34 7.96 0 10 C-2.39456443 7.60543557 -2.75546876 6.34192692 -3 3 C-1.5625 1.1875 -1.5625 1.1875 0 0 Z " fill="#EDEDED" transform="translate(329,450)"/>
<path d="M0 0 C0.66 0.33 1.32 0.66 2 1 C1.67 4.96 1.34 8.92 1 13 C0.67 13 0.34 13 0 13 C0 10.36 0 7.72 0 5 C-0.66 5 -1.32 5 -2 5 C-1.34 3.35 -0.68 1.7 0 0 Z " fill="#E1E1E1" transform="translate(227,499)"/>
<path d="M0 0 C0.33 0.66 0.66 1.32 1 2 C1.99 2.33 2.98 2.66 4 3 C3.01 3.33 2.02 3.66 1 4 C0.67 4.99 0.34 5.98 0 7 C-0.33 6.34 -0.66 5.68 -1 5 C-1.99 5.495 -1.99 5.495 -3 6 C-1.125 1.125 -1.125 1.125 0 0 Z " fill="#EAEAEA" transform="translate(293,499)"/>
<path d="M0 0 C0.66 0.66 1.32 1.32 2 2 C1.625 5.125 1.625 5.125 1 8 C-0.65 8.33 -2.3 8.66 -4 9 C-3.525625 8.443125 -3.05125 7.88625 -2.5625 7.3125 C-0.87604004 4.81653926 -0.41046893 2.9553763 0 0 Z " fill="#FBFBF9" transform="translate(340,470)"/>
<path d="M0 0 C-1.1446875 0.6496875 -1.1446875 0.6496875 -2.3125 1.3125 C-4.58093768 2.73686785 -6.2199723 4.03260097 -8 6 C-8.66 4.68 -9.32 3.36 -10 2 C-3.375 -1.125 -3.375 -1.125 0 0 Z " fill="#F1F1F1" transform="translate(157,54)"/>
<path d="M0 0 C1.32 0.33 2.64 0.66 4 1 C3.67 2.32 3.34 3.64 3 5 C0 5 0 5 -2 4 C-1.34 2.68 -0.68 1.36 0 0 Z " fill="#EAEAEA" transform="translate(239,510)"/>
<path d="M0 0 C2.875 -0.1875 2.875 -0.1875 6 0 C6.66 0.99 7.32 1.98 8 3 C5.69 3 3.38 3 1 3 C0.67 2.01 0.34 1.02 0 0 Z " fill="#DFDFDF" transform="translate(202,516)"/>
<path d="M0 0 C2.94956528 1.36944102 5.52468811 2.87830409 8 5 C8 5.66 8 6.32 8 7 C6 6 4 5 2 4 C2 3.34 2 2.68 2 2 C1.34 2 0.68 2 0 2 C0 1.34 0 0.68 0 0 Z " fill="#F3F3F3" transform="translate(259,167)"/>
<path d="M0 0 C0.33 0.99 0.66 1.98 1 3 C0.34 3.66 -0.32 4.32 -1 5 C-3.625 4.625 -3.625 4.625 -6 4 C-5.67 3.01 -5.34 2.02 -5 1 C-5 1.66 -5 2.32 -5 3 C-3.35 2.67 -1.7 2.34 0 2 C0 1.34 0 0.68 0 0 Z " fill="#E7E7E6" transform="translate(341,476)"/>
<path d="M0 0 C2.0625 0.4375 2.0625 0.4375 4 1 C2.625 3.5 2.625 3.5 1 6 C0.34 6 -0.32 6 -1 6 C-1.042721 4.33388095 -1.04063832 2.66617115 -1 1 C-0.67 0.67 -0.34 0.34 0 0 Z " fill="#F2F0F1" transform="translate(139,449)"/>
</svg>
